<svg width="760" height="114" viewBox="0 0 760 114" fill="none" xmlns="http://www.w3.org/2000/svg">
<path d="M5.62 92.04L3.16 106H0.34L2.82 92.04H5.62ZM14.0264 94.76C15.1731 94.76 16.0731 95.0733 16.7264 95.7C17.3931 96.3133 17.7264 97.1933 17.7264 98.34C17.7264 98.7667 17.6931 99.1533 17.6264 99.5L16.4664 106H13.6864L14.7664 99.88C14.8064 99.64 14.8264 99.4067 14.8264 99.18C14.8264 98.5133 14.6464 98.0067 14.2864 97.66C13.9397 97.3133 13.4397 97.14 12.7864 97.14C12.0397 97.14 11.3997 97.3667 10.8664 97.82C10.3464 98.26 9.99974 98.9 9.82641 99.74L8.72641 106H5.90641L7.86641 94.92H10.6864L10.4464 96.28C10.8997 95.8133 11.4397 95.4467 12.0664 95.18C12.6931 94.9 13.3464 94.76 14.0264 94.76ZM27.2491 94.76C28.3957 94.76 29.2957 95.0733 29.9491 95.7C30.6157 96.3133 30.9491 97.1933 30.9491 98.34C30.9491 98.7667 30.9157 99.1533 30.8491 99.5L29.6891 106H26.9091L27.9891 99.88C28.0291 99.64 28.0491 99.4067 28.0491 99.18C28.0491 98.5133 27.8691 98.0067 27.5091 97.66C27.1624 97.3133 26.6624 97.14 26.0091 97.14C25.2624 97.14 24.6224 97.3667 24.0891 97.82C23.5691 98.26 23.2224 98.9 23.0491 99.74L21.9491 106H19.1291L21.0891 94.92H23.9091L23.6691 96.28C24.1224 95.8133 24.6624 95.4467 25.2891 95.18C25.9157 94.9 26.5691 94.76 27.2491 94.76ZM37.3117 106.18C36.3651 106.18 35.5251 105.987 34.7917 105.6C34.0717 105.213 33.5117 104.667 33.1117 103.96C32.7117 103.253 32.5117 102.44 32.5117 101.52C32.5117 100.267 32.8051 99.1267 33.3917 98.1C33.9917 97.06 34.8051 96.24 35.8317 95.64C36.8717 95.04 38.0251 94.74 39.2917 94.74C40.2384 94.74 41.0784 94.94 41.8117 95.34C42.5584 95.7267 43.1317 96.2733 43.5317 96.98C43.9451 97.6867 44.1517 98.5 44.1517 99.42C44.1517 100.687 43.8517 101.833 43.2517 102.86C42.6517 103.887 41.8251 104.7 40.7717 105.3C39.7317 105.887 38.5784 106.18 37.3117 106.18ZM37.6917 103.78C38.3584 103.78 38.9651 103.587 39.5117 103.2C40.0584 102.813 40.4851 102.3 40.7917 101.66C41.0984 101.02 41.2517 100.347 41.2517 99.64C41.2517 98.84 41.0251 98.2267 40.5717 97.8C40.1317 97.36 39.5717 97.14 38.8917 97.14C38.2117 97.14 37.6051 97.3333 37.0717 97.72C36.5517 98.1067 36.1451 98.6267 35.8517 99.28C35.5584 99.92 35.4117 100.6 35.4117 101.32C35.4117 102.107 35.6184 102.713 36.0317 103.14C36.4584 103.567 37.0117 103.78 37.6917 103.78ZM50.1856 103.42L54.4856 94.92H57.5056L51.4456 106H48.0056L45.8856 94.92H48.8856L50.1856 103.42ZM57.3583 100.42C57.5583 99.3 57.9516 98.3067 58.5383 97.44C59.1383 96.5733 59.8649 95.9067 60.7183 95.44C61.5716 94.9733 62.4716 94.74 63.4183 94.74C64.2449 94.74 64.9383 94.9067 65.4983 95.24C66.0716 95.5733 66.4916 95.9933 66.7583 96.5L67.0383 94.92H69.8583L67.8983 106H65.0783L65.3783 104.38C64.9383 104.9 64.3649 105.333 63.6583 105.68C62.9649 106.013 62.2049 106.18 61.3783 106.18C60.5649 106.18 59.8449 106 59.2183 105.64C58.5916 105.267 58.1049 104.747 57.7583 104.08C57.4116 103.4 57.2383 102.613 57.2383 101.72C57.2383 101.307 57.2783 100.873 57.3583 100.42ZM66.0583 100.46C66.1116 100.113 66.1383 99.86 66.1383 99.7C66.1383 98.9133 65.9049 98.3 65.4383 97.86C64.9849 97.42 64.4116 97.2 63.7183 97.2C63.1983 97.2 62.6916 97.3267 62.1983 97.58C61.7183 97.8333 61.2983 98.2067 60.9383 98.7C60.5783 99.18 60.3383 99.7533 60.2183 100.42C60.1783 100.673 60.1583 100.913 60.1583 101.14C60.1583 101.94 60.3849 102.573 60.8383 103.04C61.2916 103.493 61.8649 103.72 62.5583 103.72C63.0783 103.72 63.5849 103.593 64.0783 103.34C64.5716 103.073 64.9916 102.693 65.3383 102.2C65.6983 101.707 65.9383 101.127 66.0583 100.46ZM74.513 102.58C74.4996 102.66 74.493 102.767 74.493 102.9C74.493 103.167 74.5663 103.36 74.713 103.48C74.873 103.587 75.133 103.64 75.493 103.64H76.813L76.393 106H74.613C72.613 106 71.613 105.167 71.613 103.5C71.613 103.18 71.6396 102.867 71.693 102.56L72.633 97.22H71.313L71.713 94.92H73.053L73.533 92.18H76.353L75.873 94.92H78.333L77.933 97.22H75.453L74.513 102.58ZM82.0069 93.6C81.5669 93.6 81.2135 93.4733 80.9469 93.22C80.6802 92.9667 80.5469 92.6467 80.5469 92.26C80.5469 91.7267 80.7469 91.2733 81.1469 90.9C81.5602 90.5133 82.0402 90.32 82.5869 90.32C83.0135 90.32 83.3602 90.4467 83.6269 90.7C83.8935 90.9533 84.0269 91.2733 84.0269 91.66C84.0269 92.1933 83.8269 92.6533 83.4269 93.04C83.0269 93.4133 82.5535 93.6 82.0069 93.6ZM83.1669 94.92L81.2069 106H78.3869L80.3469 94.92H83.1669ZM88.9133 106.18C87.9666 106.18 87.1266 105.987 86.3933 105.6C85.6733 105.213 85.1133 104.667 84.7133 103.96C84.3133 103.253 84.1133 102.44 84.1133 101.52C84.1133 100.267 84.4066 99.1267 84.9933 98.1C85.5933 97.06 86.4066 96.24 87.4333 95.64C88.4733 95.04 89.6266 94.74 90.8933 94.74C91.8399 94.74 92.6799 94.94 93.4133 95.34C94.1599 95.7267 94.7333 96.2733 95.1333 96.98C95.5466 97.6867 95.7533 98.5 95.7533 99.42C95.7533 100.687 95.4533 101.833 94.8533 102.86C94.2533 103.887 93.4266 104.7 92.3733 105.3C91.3333 105.887 90.1799 106.18 88.9133 106.18ZM89.2933 103.78C89.9599 103.78 90.5666 103.587 91.1133 103.2C91.6599 102.813 92.0866 102.3 92.3933 101.66C92.6999 101.02 92.8533 100.347 92.8533 99.64C92.8533 98.84 92.6266 98.2267 92.1733 97.8C91.7333 97.36 91.1733 97.14 90.4933 97.14C89.8133 97.14 89.2066 97.3333 88.6733 97.72C88.1533 98.1067 87.7466 98.6267 87.4533 99.28C87.1599 99.92 87.0133 100.6 87.0133 101.32C87.0133 102.107 87.2199 102.713 87.6333 103.14C88.0599 103.567 88.6133 103.78 89.2933 103.78ZM104.827 94.76C105.974 94.76 106.874 95.0733 107.527 95.7C108.194 96.3133 108.527 97.1933 108.527 98.34C108.527 98.7667 108.494 99.1533 108.427 99.5L107.267 106H104.487L105.567 99.88C105.607 99.64 105.627 99.4067 105.627 99.18C105.627 98.5133 105.447 98.0067 105.087 97.66C104.741 97.3133 104.241 97.14 103.587 97.14C102.841 97.14 102.201 97.3667 101.667 97.82C101.147 98.26 100.801 98.9 100.627 99.74L99.5272 106H96.7072L98.6672 94.92H101.487L101.247 96.28C101.701 95.8133 102.241 95.4467 102.867 95.18C103.494 94.9 104.147 94.76 104.827 94.76Z" fill="black"/>
<path d="M61.6875 52.5H42.3125V56.375H61.6875V52.5Z" fill="black"/>
<path d="M57.8125 60.25H46.1875V64.125H57.8125V60.25Z" fill="black"/>
<path d="M52 9.875C46.8614 9.875 41.9333 11.9163 38.2998 15.5498C34.6663 19.1833 32.625 24.1114 32.625 29.25C32.494 32.0658 33.0334 34.8726 34.1988 37.4392C35.3643 40.0059 37.1225 42.2592 39.3287 44.0138C41.2662 45.8156 42.3125 46.8425 42.3125 48.625H46.1875C46.1875 45.06 44.0369 43.0644 41.9444 41.1462C40.1335 39.7595 38.6903 37.9499 37.7411 35.8759C36.792 33.802 36.3658 31.5269 36.5 29.25C36.5 25.1391 38.133 21.1967 41.0398 18.2898C43.9467 15.383 47.8891 13.75 52 13.75C56.1109 13.75 60.0533 15.383 62.9602 18.2898C65.867 21.1967 67.5 25.1391 67.5 29.25C67.632 31.5286 67.2028 33.8047 66.2502 35.8788C65.2976 37.9529 63.8507 39.7616 62.0362 41.1462C59.9631 43.0837 57.8125 45.0213 57.8125 48.625H61.6875C61.6875 46.8425 62.7144 45.8156 64.6712 43.9944C66.876 42.2428 68.6334 39.9929 69.7988 37.4295C70.9643 34.8662 71.5045 32.0628 71.375 29.25C71.375 26.7056 70.8739 24.1862 69.9002 21.8355C68.9265 19.4848 67.4993 17.3489 65.7002 15.5498C63.9011 13.7507 61.7652 12.3235 59.4145 11.3498C57.0638 10.3761 54.5444 9.875 52 9.875Z" fill="black"/>
<path d="M663.32 92.04L662.92 94.24H659.22L657.14 106H654.32L656.4 94.24H652.68L653.08 92.04H663.32ZM669.723 94.74C671.136 94.74 672.256 95.1333 673.083 95.92C673.91 96.6933 674.323 97.74 674.323 99.06C674.323 99.4867 674.29 99.8667 674.223 100.2C674.143 100.6 674.056 100.947 673.963 101.24H665.863C665.85 101.333 665.843 101.467 665.843 101.64C665.843 102.333 666.043 102.88 666.443 103.28C666.856 103.667 667.396 103.86 668.063 103.86C668.623 103.86 669.103 103.74 669.503 103.5C669.916 103.247 670.25 102.92 670.503 102.52H673.523C673.03 103.587 672.263 104.467 671.223 105.16C670.196 105.84 669.03 106.18 667.723 106.18C666.31 106.18 665.176 105.78 664.323 104.98C663.47 104.18 663.043 103.093 663.043 101.72C663.043 101.32 663.083 100.9 663.163 100.46C663.363 99.3133 663.77 98.3067 664.383 97.44C665.01 96.5733 665.783 95.9067 666.703 95.44C667.623 94.9733 668.63 94.74 669.723 94.74ZM671.443 99.54C671.47 99.3267 671.483 99.1733 671.483 99.08C671.483 98.44 671.276 97.94 670.863 97.58C670.45 97.22 669.91 97.04 669.243 97.04C668.536 97.04 667.903 97.2667 667.343 97.72C666.783 98.16 666.39 98.7667 666.163 99.54H671.443ZM675.507 100.42C675.707 99.3 676.1 98.3067 676.687 97.44C677.287 96.5733 678.013 95.9067 678.867 95.44C679.72 94.9733 680.62 94.74 681.567 94.74C682.393 94.74 683.087 94.9067 683.647 95.24C684.22 95.5733 684.64 95.9933 684.907 96.5L685.187 94.92H688.007L686.047 106H683.227L683.527 104.38C683.087 104.9 682.513 105.333 681.807 105.68C681.113 106.013 680.353 106.18 679.527 106.18C678.713 106.18 677.993 106 677.367 105.64C676.74 105.267 676.253 104.747 675.907 104.08C675.56 103.4 675.387 102.613 675.387 101.72C675.387 101.307 675.427 100.873 675.507 100.42ZM684.207 100.46C684.26 100.113 684.287 99.86 684.287 99.7C684.287 98.9133 684.053 98.3 683.587 97.86C683.133 97.42 682.56 97.2 681.867 97.2C681.347 97.2 680.84 97.3267 680.347 97.58C679.867 97.8333 679.447 98.2067 679.087 98.7C678.727 99.18 678.487 99.7533 678.367 100.42C678.327 100.673 678.307 100.913 678.307 101.14C678.307 101.94 678.533 102.573 678.987 103.04C679.44 103.493 680.013 103.72 680.707 103.72C681.227 103.72 681.733 103.593 682.227 103.34C682.72 103.073 683.14 102.693 683.487 102.2C683.847 101.707 684.087 101.127 684.207 100.46ZM704.541 94.76C705.715 94.76 706.641 95.0733 707.321 95.7C708.001 96.3267 708.341 97.2133 708.341 98.36C708.341 98.7867 708.308 99.1667 708.241 99.5L707.081 106H704.301L705.381 99.88C705.421 99.64 705.441 99.4067 705.441 99.18C705.441 98.54 705.261 98.0533 704.901 97.72C704.555 97.3733 704.055 97.2 703.401 97.2C702.628 97.2 701.975 97.4333 701.441 97.9C700.908 98.3533 700.575 99.0133 700.441 99.88V99.86L699.341 106H696.561L697.641 99.88C697.681 99.64 697.701 99.4133 697.701 99.2C697.701 98.5467 697.521 98.0533 697.161 97.72C696.801 97.3733 696.295 97.2 695.641 97.2C694.908 97.2 694.275 97.42 693.741 97.86C693.221 98.2867 692.881 98.9 692.721 99.7L691.601 106H688.781L690.741 94.92H693.561L693.321 96.24C693.761 95.7867 694.288 95.4267 694.901 95.16C695.515 94.8933 696.161 94.76 696.841 94.76C697.708 94.76 698.448 94.9467 699.061 95.32C699.675 95.68 700.108 96.2 700.361 96.88C700.828 96.24 701.435 95.7267 702.181 95.34C702.941 94.9533 703.728 94.76 704.541 94.76ZM727.078 94.92L721.878 106H718.838L718.198 98.3L714.798 106H711.758L710.478 94.92H713.298L713.778 103.36L717.398 94.92H720.358L720.958 103.34L724.378 94.92H727.078ZM731.573 106.18C730.627 106.18 729.787 105.987 729.053 105.6C728.333 105.213 727.773 104.667 727.373 103.96C726.973 103.253 726.773 102.44 726.773 101.52C726.773 100.267 727.067 99.1267 727.653 98.1C728.253 97.06 729.067 96.24 730.093 95.64C731.133 95.04 732.287 94.74 733.553 94.74C734.5 94.74 735.34 94.94 736.073 95.34C736.82 95.7267 737.393 96.2733 737.793 96.98C738.207 97.6867 738.413 98.5 738.413 99.42C738.413 100.687 738.113 101.833 737.513 102.86C736.913 103.887 736.087 104.7 735.033 105.3C733.993 105.887 732.84 106.18 731.573 106.18ZM731.953 103.78C732.62 103.78 733.227 103.587 733.773 103.2C734.32 102.813 734.747 102.3 735.053 101.66C735.36 101.02 735.513 100.347 735.513 99.64C735.513 98.84 735.287 98.2267 734.833 97.8C734.393 97.36 733.833 97.14 733.153 97.14C732.473 97.14 731.867 97.3333 731.333 97.72C730.813 98.1067 730.407 98.6267 730.113 99.28C729.82 99.92 729.673 100.6 729.673 101.32C729.673 102.107 729.88 102.713 730.293 103.14C730.72 103.567 731.273 103.78 731.953 103.78ZM743.807 96.88C744.287 96.2133 744.847 95.6933 745.487 95.32C746.127 94.9467 746.821 94.76 747.567 94.76L747.047 97.7H746.307C745.481 97.7 744.814 97.88 744.307 98.24C743.814 98.6 743.454 99.2133 743.227 100.08L742.187 106H739.367L741.327 94.92H744.147L743.807 96.88ZM753.733 100.46L757.653 106H754.033L751.113 101.3L750.273 106H747.453L750.073 91.2H752.893L751.413 99.6L755.933 94.92H759.593L753.733 100.46Z" fill="black"/>
<g clip-path="url(#clip0_44_489)">
<path d="M706.047 9.15134C705.39 8.44966 704.461 8.04736 703.5 8.04736C702.539 8.04736 701.61 8.44977 700.953 9.15134C700.296 9.85292 699.954 10.8055 700.017 11.765L700.192 14.4555C700.192 14.4557 700.192 14.4557 700.192 14.4557C700.262 15.5195 700.824 16.4925 701.695 17.0586C702.243 17.4149 702.872 17.5929 703.5 17.5929C704.129 17.5929 704.757 17.4148 705.305 17.0587C706.176 16.4926 706.738 15.5196 706.808 14.4557L706.983 11.765C707.046 10.8057 706.705 9.85303 706.047 9.15134ZM704.797 11.6225L704.621 14.3129C704.597 14.6905 704.406 15.0299 704.112 15.2213C703.74 15.4626 703.26 15.4624 702.889 15.2213C702.594 15.0299 702.404 14.6903 702.379 14.3129L702.204 11.6225C702.18 11.2602 702.304 10.9146 702.552 10.6496C702.8 10.3847 703.137 10.2387 703.5 10.2387C703.863 10.2387 704.2 10.3847 704.448 10.6496C704.697 10.9146 704.82 11.2602 704.797 11.6225Z" fill="black"/>
<path d="M712.166 24.0276L711.861 22.3471C711.461 20.1381 709.711 18.3751 707.506 17.9599C707.173 17.8973 706.833 17.8655 706.495 17.8655H705.578C705.287 17.8655 705.009 17.981 704.803 18.1863C704.455 18.5344 703.992 18.7261 703.5 18.7261C703.008 18.7261 702.545 18.5344 702.197 18.1863C701.991 17.981 701.713 17.8655 701.422 17.8655H700.505C700.167 17.8655 699.827 17.8973 699.494 17.9599C697.289 18.3749 695.539 20.138 695.139 22.3471L694.834 24.0276C694.776 24.347 694.863 24.6759 695.071 24.9251C695.28 25.1743 695.588 25.3185 695.912 25.3185H711.088C711.412 25.3185 711.72 25.1744 711.929 24.9251C712.137 24.6759 712.224 24.3471 712.166 24.0276ZM697.225 23.1271L697.295 22.7376C697.534 21.4161 698.581 20.3614 699.899 20.1132C700.099 20.0756 700.303 20.0566 700.506 20.0566H701.008C701.716 20.6145 702.585 20.9174 703.5 20.9174C704.415 20.9174 705.284 20.6146 705.992 20.0566H706.495C706.697 20.0566 706.901 20.0756 707.101 20.1132C708.419 20.3614 709.466 21.4161 709.705 22.7376L709.776 23.1271H697.225Z" fill="black"/>
<path d="M706.047 46.7854C705.39 46.0837 704.461 45.6814 703.5 45.6814C702.539 45.6814 701.61 46.0838 700.953 46.7854C700.296 47.4871 699.954 48.4397 700.017 49.3991L700.192 52.0897C700.262 53.1536 700.824 54.1266 701.695 54.6926C702.243 55.049 702.872 55.227 703.5 55.227C704.128 55.227 704.757 55.0489 705.305 54.6926C706.176 54.1266 706.738 53.1535 706.808 52.0896L706.983 49.399C707.046 48.4397 706.705 47.4871 706.047 46.7854ZM704.797 49.2563L704.621 51.9468C704.597 52.3243 704.406 52.6638 704.112 52.8551C703.74 53.0964 703.26 53.0964 702.889 52.8551C702.594 52.6638 702.404 52.3242 702.379 51.9468L702.204 49.2564C702.18 48.894 702.304 48.5484 702.552 48.2835C702.8 48.0186 703.137 47.8726 703.5 47.8726C703.863 47.8726 704.2 48.0186 704.448 48.2835C704.697 48.5484 704.82 48.894 704.797 49.2563Z" fill="black"/>
<path d="M712.166 61.6616L711.861 59.9812C711.461 57.7721 709.711 56.0091 707.506 55.5939C707.174 55.5313 706.833 55.4995 706.495 55.4995H705.578C705.287 55.4995 705.009 55.615 704.803 55.8204C704.085 56.5391 702.915 56.539 702.197 55.8204C701.991 55.615 701.713 55.4995 701.422 55.4995H700.505C700.167 55.4995 699.827 55.5313 699.494 55.5939C697.289 56.0091 695.539 57.7721 695.139 59.9813L694.834 61.6617C694.776 61.9812 694.863 62.31 695.071 62.5592C695.28 62.8084 695.588 62.9525 695.912 62.9525H711.088C711.412 62.9525 711.72 62.8084 711.928 62.559C712.137 62.3099 712.223 61.9812 712.166 61.6616ZM697.225 60.7613L697.295 60.3719C697.534 59.0504 698.581 57.9957 699.899 57.7474C700.099 57.7098 700.303 57.6908 700.505 57.6908H701.009C702.466 58.8359 704.535 58.8359 705.991 57.6908H706.495C706.698 57.6908 706.902 57.7098 707.101 57.7473C708.419 57.9956 709.466 59.0503 709.705 60.3718L709.776 60.7613H697.225Z" fill="black"/>
<path d="M687.23 27.9686C686.573 27.2669 685.645 26.8645 684.683 26.8645C683.722 26.8645 682.793 27.2669 682.136 27.9686C681.479 28.6702 681.138 29.6228 681.2 30.5821L681.376 33.2726C681.445 34.3364 682.007 35.3095 682.878 35.8756C683.426 36.2319 684.055 36.41 684.683 36.41C685.312 36.41 685.94 36.2319 686.488 35.8757C687.36 35.3096 687.921 34.3365 687.991 33.2728L688.166 30.5822C688.229 29.6229 687.888 28.6701 687.23 27.9686ZM685.98 30.4394L685.804 33.13C685.78 33.5075 685.589 33.8469 685.295 34.0382C684.923 34.2796 684.443 34.2796 684.072 34.0382C683.777 33.8468 683.587 33.5073 683.562 33.13L683.387 30.4394C683.363 30.0771 683.487 29.7315 683.735 29.4666C683.983 29.2016 684.32 29.0556 684.683 29.0556C685.046 29.0556 685.383 29.2017 685.631 29.4666C685.879 29.7315 686.003 30.0771 685.98 30.4394Z" fill="black"/>
<path d="M693.349 42.8444L693.044 41.164C692.644 38.955 690.894 37.192 688.689 36.7768C688.357 36.7142 688.016 36.6824 687.678 36.6824H686.761C686.47 36.6824 686.192 36.7979 685.986 37.0032C685.268 37.7219 684.098 37.722 683.38 37.0032C683.174 36.7979 682.896 36.6824 682.605 36.6824H681.688C681.35 36.6824 681.01 36.7142 680.677 36.7768C678.472 37.192 676.722 38.955 676.322 41.164L676.017 42.8444C675.959 43.1639 676.046 43.4927 676.254 43.742C676.463 43.9912 676.771 44.1352 677.095 44.1352H692.271C692.595 44.1352 692.903 43.9912 693.111 43.742C693.32 43.4927 693.406 43.1641 693.349 42.8444ZM678.408 41.9441L678.478 41.5546C678.718 40.2332 679.764 39.1784 681.083 38.9302C681.282 38.8926 681.486 38.8736 681.689 38.8736H682.192C682.9 39.4315 683.768 39.7342 684.683 39.7342C685.598 39.7342 686.467 39.4315 687.175 38.8736H687.678C687.881 38.8736 688.085 38.8926 688.284 38.9302C689.602 39.1784 690.649 40.2332 690.888 41.5546L690.959 41.9441H678.408Z" fill="black"/>
<path d="M724.864 27.9685C724.207 27.2668 723.278 26.8645 722.317 26.8645C721.356 26.8645 720.427 27.2669 719.77 27.9686C719.112 28.6702 718.771 29.6229 718.834 30.5822L719.01 33.2727C719.079 34.3365 719.64 35.3096 720.512 35.8757C721.06 36.2321 721.689 36.4101 722.317 36.4101C722.945 36.4101 723.574 36.232 724.122 35.8757C724.993 35.3096 725.555 34.3365 725.624 33.2727L725.8 30.5821C725.863 29.6227 725.521 28.6701 724.864 27.9685ZM723.614 30.4394L723.438 33.13C723.414 33.5074 723.223 33.8469 722.929 34.0382C722.557 34.2794 722.077 34.2796 721.706 34.0382C721.411 33.8469 721.221 33.5074 721.196 33.13L721.021 30.4394C720.997 30.0771 721.121 29.7315 721.369 29.4666C721.617 29.2017 721.954 29.0557 722.317 29.0557C722.68 29.0557 723.017 29.2017 723.265 29.4666C723.514 29.7315 723.637 30.0771 723.614 30.4394Z" fill="black"/>
<path d="M730.983 42.8444L730.678 41.164C730.278 38.955 728.528 37.192 726.323 36.7768C725.99 36.7142 725.65 36.6824 725.312 36.6824H724.395C724.104 36.6824 723.826 36.7979 723.62 37.0032C722.901 37.7219 721.732 37.722 721.014 37.0032C720.808 36.7979 720.53 36.6824 720.239 36.6824H719.322C718.984 36.6824 718.643 36.7142 718.311 36.7768C716.106 37.192 714.356 38.955 713.956 41.164L713.651 42.8444C713.593 43.1639 713.68 43.4927 713.888 43.742C714.097 43.9912 714.405 44.1352 714.729 44.1352H729.905C730.229 44.1352 730.537 43.9912 730.745 43.742C730.954 43.4927 731.04 43.1641 730.983 42.8444ZM716.041 41.9441L716.112 41.5546C716.351 40.2332 717.398 39.1784 718.717 38.9302C718.916 38.8926 719.12 38.8736 719.322 38.8736H719.825C720.533 39.4315 721.402 39.7342 722.317 39.7342C723.232 39.7342 724.101 39.4315 724.809 38.8736H725.312C725.514 38.8736 725.718 38.8926 725.918 38.9302C727.236 39.1784 728.283 40.2332 728.522 41.5546L728.593 41.9441H716.041Z" fill="black"/>
<path d="M697.809 15.1144C697.615 14.5413 696.994 14.2339 696.42 14.4277C692.081 15.8958 688.215 18.7652 685.536 22.5069C685.184 22.9989 685.297 23.6834 685.789 24.0356C685.983 24.174 686.205 24.2405 686.426 24.2405C686.768 24.2405 687.104 24.0813 687.318 23.7825C689.732 20.4108 693.214 17.8256 697.123 16.5033C697.696 16.3094 698.003 15.6875 697.809 15.1144Z" fill="black"/>
<path d="M721.497 22.5069C719.611 19.8726 717.122 17.6455 714.3 16.0661C713.772 15.7708 713.104 15.9592 712.809 16.4873C712.513 17.0154 712.702 17.6829 713.23 17.9785C715.773 19.4016 718.016 21.4087 719.716 23.7825C719.929 24.0813 720.266 24.2404 720.607 24.2404C720.828 24.2404 721.051 24.1739 721.244 24.0355C721.736 23.6832 721.849 22.9987 721.497 22.5069Z" fill="black"/>
<path d="M711.178 14.6274C710.992 14.5587 710.802 14.4914 710.613 14.4276C710.04 14.2334 709.418 14.5411 709.224 15.1142C709.03 15.6873 709.338 16.3092 709.911 16.5032C710.081 16.5607 710.252 16.6213 710.42 16.6832C710.545 16.7294 710.673 16.7513 710.799 16.7513C711.245 16.7513 711.664 16.4773 711.827 16.0347C712.036 15.467 711.746 14.837 711.178 14.6274Z" fill="black"/>
<path d="M697.123 53.3543C693.214 52.0321 689.732 49.4469 687.318 46.075C686.966 45.5831 686.281 45.4698 685.789 45.822C685.297 46.1744 685.184 46.8588 685.536 47.3508C688.215 51.0926 692.081 53.9619 696.42 55.43C696.537 55.4693 696.655 55.4881 696.772 55.4881C697.228 55.4881 697.655 55.2 697.809 54.7433C698.003 54.1702 697.696 53.5483 697.123 53.3543Z" fill="black"/>
<path d="M721.244 45.8223C720.752 45.47 720.068 45.5835 719.716 46.0752C717.301 49.4471 713.819 52.0322 709.911 53.3544C709.338 53.5483 709.03 54.1702 709.224 54.7434C709.379 55.2001 709.805 55.4881 710.262 55.4881C710.378 55.4881 710.497 55.4694 710.613 55.4301C715.016 53.9407 718.779 51.147 721.497 47.3509C721.849 46.8589 721.736 46.1745 721.244 45.8223Z" fill="black"/>
</g>
<path d="M446.62 92.04L444.16 106H441.34L443.82 92.04H446.62ZM455.026 94.76C456.173 94.76 457.073 95.0733 457.726 95.7C458.393 96.3133 458.726 97.1933 458.726 98.34C458.726 98.7667 458.693 99.1533 458.626 99.5L457.466 106H454.686L455.766 99.88C455.806 99.64 455.826 99.4067 455.826 99.18C455.826 98.5133 455.646 98.0067 455.286 97.66C454.94 97.3133 454.44 97.14 453.786 97.14C453.04 97.14 452.4 97.3667 451.866 97.82C451.346 98.26 451 98.9 450.826 99.74L449.726 106H446.906L448.866 94.92H451.686L451.446 96.28C451.9 95.8133 452.44 95.4467 453.066 95.18C453.693 94.9 454.346 94.76 455.026 94.76ZM464.009 102.58C463.996 102.66 463.989 102.767 463.989 102.9C463.989 103.167 464.062 103.36 464.209 103.48C464.369 103.587 464.629 103.64 464.989 103.64H466.309L465.889 106H464.109C462.109 106 461.109 105.167 461.109 103.5C461.109 103.18 461.136 102.867 461.189 102.56L462.129 97.22H460.809L461.209 94.92H462.549L463.029 92.18H465.849L465.369 94.92H467.829L467.429 97.22H464.949L464.009 102.58ZM474.723 94.74C476.136 94.74 477.256 95.1333 478.083 95.92C478.91 96.6933 479.323 97.74 479.323 99.06C479.323 99.4867 479.29 99.8667 479.223 100.2C479.143 100.6 479.056 100.947 478.963 101.24H470.863C470.85 101.333 470.843 101.467 470.843 101.64C470.843 102.333 471.043 102.88 471.443 103.28C471.856 103.667 472.396 103.86 473.063 103.86C473.623 103.86 474.103 103.74 474.503 103.5C474.916 103.247 475.25 102.92 475.503 102.52H478.523C478.03 103.587 477.263 104.467 476.223 105.16C475.196 105.84 474.03 106.18 472.723 106.18C471.31 106.18 470.176 105.78 469.323 104.98C468.47 104.18 468.043 103.093 468.043 101.72C468.043 101.32 468.083 100.9 468.163 100.46C468.363 99.3133 468.77 98.3067 469.383 97.44C470.01 96.5733 470.783 95.9067 471.703 95.44C472.623 94.9733 473.63 94.74 474.723 94.74ZM476.443 99.54C476.47 99.3267 476.483 99.1733 476.483 99.08C476.483 98.44 476.276 97.94 475.863 97.58C475.45 97.22 474.91 97.04 474.243 97.04C473.536 97.04 472.903 97.2667 472.343 97.72C471.783 98.16 471.39 98.7667 471.163 99.54H476.443ZM486.567 94.74C487.393 94.74 488.093 94.9067 488.667 95.24C489.253 95.56 489.667 95.98 489.907 96.5L490.187 94.92H493.007L491.047 106.08C490.86 107.107 490.487 108.02 489.927 108.82C489.367 109.633 488.633 110.273 487.727 110.74C486.82 111.22 485.78 111.46 484.607 111.46C483.047 111.46 481.827 111.093 480.947 110.36C480.08 109.627 479.687 108.627 479.767 107.36H482.547C482.6 107.867 482.84 108.267 483.267 108.56C483.707 108.867 484.273 109.02 484.967 109.02C485.793 109.02 486.493 108.773 487.067 108.28C487.653 107.8 488.04 107.067 488.227 106.08L488.527 104.36C488.073 104.88 487.5 105.313 486.807 105.66C486.127 106.007 485.38 106.18 484.567 106.18C483.753 106.18 483.027 106 482.387 105.64C481.76 105.267 481.267 104.747 480.907 104.08C480.56 103.4 480.387 102.613 480.387 101.72C480.387 101.307 480.427 100.873 480.507 100.42C480.707 99.3 481.1 98.3067 481.687 97.44C482.287 96.5733 483.013 95.9067 483.867 95.44C484.72 94.9733 485.62 94.74 486.567 94.74ZM489.207 100.46C489.26 100.113 489.287 99.86 489.287 99.7C489.287 98.9133 489.053 98.3 488.587 97.86C488.133 97.42 487.56 97.2 486.867 97.2C486.347 97.2 485.84 97.3267 485.347 97.58C484.867 97.8333 484.447 98.2067 484.087 98.7C483.727 99.18 483.487 99.7533 483.367 100.42C483.327 100.673 483.307 100.913 483.307 101.14C483.307 101.94 483.533 102.573 483.987 103.04C484.44 103.493 485.013 103.72 485.707 103.72C486.227 103.72 486.733 103.593 487.227 103.34C487.72 103.073 488.14 102.693 488.487 102.2C488.847 101.707 489.087 101.127 489.207 100.46ZM498.221 96.88C498.701 96.2133 499.261 95.6933 499.901 95.32C500.541 94.9467 501.235 94.76 501.981 94.76L501.461 97.7H500.721C499.895 97.7 499.228 97.88 498.721 98.24C498.228 98.6 497.868 99.2133 497.641 100.08L496.601 106H493.781L495.741 94.92H498.561L498.221 96.88ZM505.487 93.6C505.047 93.6 504.694 93.4733 504.427 93.22C504.161 92.9667 504.027 92.6467 504.027 92.26C504.027 91.7267 504.227 91.2733 504.627 90.9C505.041 90.5133 505.521 90.32 506.067 90.32C506.494 90.32 506.841 90.4467 507.107 90.7C507.374 90.9533 507.507 91.2733 507.507 91.66C507.507 92.1933 507.307 92.6533 506.907 93.04C506.507 93.4133 506.034 93.6 505.487 93.6ZM506.647 94.92L504.687 106H501.867L503.827 94.92H506.647ZM511.314 102.58C511.3 102.66 511.294 102.767 511.294 102.9C511.294 103.167 511.367 103.36 511.514 103.48C511.674 103.587 511.934 103.64 512.294 103.64H513.614L513.194 106H511.414C509.414 106 508.414 105.167 508.414 103.5C508.414 103.18 508.44 102.867 508.494 102.56L509.434 97.22H508.114L508.514 94.92H509.854L510.334 92.18H513.154L512.674 94.92H515.134L514.734 97.22H512.254L511.314 102.58ZM519.008 94.92L520.488 102.66L524.788 94.92H527.768L518.028 111.24H515.048L518.408 105.72L515.868 94.92H519.008Z" fill="black"/>
<path d="M500.881 27.5008C500.981 26.7417 501.038 25.969 501.038 25.1827C501.038 15.5122 493.171 7.64429 483.5 7.64429C473.829 7.64429 465.962 15.5122 465.962 25.1827C465.962 25.969 466.019 26.7417 466.12 27.5008C459.616 30.0687 455 36.4121 455 43.8172C455 53.4878 462.868 61.3557 472.538 61.3557C476.684 61.3557 480.495 59.9069 483.5 57.4936C486.505 59.9069 490.316 61.3557 494.462 61.3557C504.132 61.3557 512 53.4878 512 43.8172C512 36.4121 507.384 30.0687 500.881 27.5008ZM483.5 9.83656C491.962 9.83656 498.846 16.7208 498.846 25.1827C498.846 25.7335 498.816 26.2773 498.759 26.8133C497.383 26.4654 495.944 26.2789 494.462 26.2789C490.317 26.2789 486.505 27.7277 483.5 30.141C480.495 27.7277 476.684 26.2789 472.538 26.2789C471.056 26.2789 469.617 26.4655 468.241 26.8133C468.184 26.2773 468.154 25.7337 468.154 25.1827C468.154 16.7206 475.038 9.83656 483.5 9.83656ZM483.5 33.0918C485.359 34.9915 486.732 37.369 487.409 40.0226C486.16 40.3518 484.851 40.5288 483.5 40.5288C482.149 40.5288 480.84 40.3518 479.591 40.0226C480.269 37.369 481.641 34.9915 483.5 33.0918ZM477.513 39.312C473.152 37.4573 469.82 33.6411 468.63 28.9773C469.878 28.6481 471.188 28.4711 472.539 28.4711C476.042 28.4711 479.274 29.654 481.86 31.6378C479.812 33.7553 478.292 36.3832 477.513 39.312ZM485.141 31.6378C487.727 29.654 490.958 28.4711 494.462 28.4711C495.812 28.4711 497.122 28.6481 498.371 28.9773C497.18 33.6411 493.848 37.4573 489.488 39.312C488.708 36.3832 487.187 33.7553 485.141 31.6378ZM472.538 59.1634C464.076 59.1634 457.192 52.2792 457.192 43.8172C457.192 37.4783 461.056 32.0255 466.551 29.6879C467.988 35.0897 471.945 39.4713 477.081 41.4992C476.98 42.2583 476.923 43.031 476.923 43.8172C476.923 48.5452 478.807 52.8393 481.86 55.9965C479.274 57.9805 476.042 59.1634 472.538 59.1634ZM479.115 43.8172C479.115 43.2664 479.146 42.7227 479.203 42.1866C480.579 42.5344 482.018 42.721 483.5 42.721C484.982 42.721 486.421 42.5343 487.797 42.1866C487.854 42.7227 487.885 43.2663 487.885 43.8172C487.885 47.9883 486.21 51.7739 483.5 54.5427C480.79 51.7739 479.115 47.9884 479.115 43.8172ZM494.462 59.1634C490.958 59.1634 487.727 57.9805 485.141 55.9965C488.193 52.8392 490.077 48.5451 490.077 43.8172C490.077 43.031 490.02 42.2583 489.919 41.4992C495.055 39.4713 499.012 35.0897 500.449 29.6879C505.945 32.0254 509.808 37.4783 509.808 43.8172C509.808 52.2793 502.924 59.1634 494.462 59.1634Z" fill="black"/>
<path d="M239.24 94.22L238.6 97.84H243.3L242.92 100H238.22L237.56 103.78H242.86L242.46 106H234.34L236.82 92.02H244.92L244.54 94.22H239.24ZM245.245 100.44C245.445 99.3333 245.851 98.3533 246.465 97.5C247.078 96.6333 247.818 95.96 248.685 95.48C249.565 95 250.478 94.76 251.425 94.76C252.211 94.76 252.885 94.9133 253.445 95.22C254.005 95.5133 254.418 95.8933 254.685 96.36L254.945 94.92H257.765L254.885 111.28H252.065L253.245 104.48C252.791 104.96 252.225 105.36 251.545 105.68C250.878 106 250.145 106.16 249.345 106.16C248.531 106.16 247.805 105.973 247.165 105.6C246.525 105.227 246.025 104.7 245.665 104.02C245.305 103.34 245.125 102.553 245.125 101.66C245.125 101.26 245.165 100.853 245.245 100.44ZM253.965 100.46C254.005 100.193 254.025 99.9467 254.025 99.72C254.025 98.92 253.791 98.3 253.325 97.86C252.871 97.42 252.305 97.2 251.625 97.2C251.131 97.2 250.638 97.3267 250.145 97.58C249.651 97.8333 249.218 98.2067 248.845 98.7C248.485 99.18 248.245 99.76 248.125 100.44C248.085 100.693 248.065 100.94 248.065 101.18C248.065 101.967 248.298 102.587 248.765 103.04C249.231 103.493 249.798 103.72 250.465 103.72C250.971 103.72 251.465 103.593 251.945 103.34C252.438 103.087 252.865 102.713 253.225 102.22C253.598 101.727 253.845 101.14 253.965 100.46ZM270.959 94.92L268.999 106H266.199L266.439 104.6C266.013 105.08 265.486 105.46 264.859 105.74C264.233 106.007 263.573 106.14 262.879 106.14C261.733 106.14 260.826 105.833 260.159 105.22C259.493 104.593 259.159 103.707 259.159 102.56C259.159 102.133 259.193 101.753 259.259 101.42L260.399 94.92H263.199L262.119 101.02C262.079 101.26 262.059 101.493 262.059 101.72C262.059 102.373 262.239 102.88 262.599 103.24C262.959 103.587 263.466 103.76 264.119 103.76C264.879 103.76 265.526 103.527 266.059 103.06C266.593 102.58 266.933 101.9 267.079 101.02L268.159 94.92H270.959ZM272.042 100.42C272.242 99.3 272.635 98.3067 273.222 97.44C273.822 96.5733 274.549 95.9067 275.402 95.44C276.255 94.9733 277.155 94.74 278.102 94.74C278.929 94.74 279.622 94.9067 280.182 95.24C280.755 95.5733 281.175 95.9933 281.442 96.5L281.722 94.92H284.542L282.582 106H279.762L280.062 104.38C279.622 104.9 279.049 105.333 278.342 105.68C277.649 106.013 276.889 106.18 276.062 106.18C275.249 106.18 274.529 106 273.902 105.64C273.275 105.267 272.789 104.747 272.442 104.08C272.095 103.4 271.922 102.613 271.922 101.72C271.922 101.307 271.962 100.873 272.042 100.42ZM280.742 100.46C280.795 100.113 280.822 99.86 280.822 99.7C280.822 98.9133 280.589 98.3 280.122 97.86C279.669 97.42 279.095 97.2 278.402 97.2C277.882 97.2 277.375 97.3267 276.882 97.58C276.402 97.8333 275.982 98.2067 275.622 98.7C275.262 99.18 275.022 99.7533 274.902 100.42C274.862 100.673 274.842 100.913 274.842 101.14C274.842 101.94 275.069 102.573 275.522 103.04C275.975 103.493 276.549 103.72 277.242 103.72C277.762 103.72 278.269 103.593 278.762 103.34C279.255 103.073 279.675 102.693 280.022 102.2C280.382 101.707 280.622 101.127 280.742 100.46ZM290.757 91.2L288.137 106H285.317L287.937 91.2H290.757ZM294.503 93.6C294.063 93.6 293.71 93.4733 293.443 93.22C293.176 92.9667 293.043 92.6467 293.043 92.26C293.043 91.7267 293.243 91.2733 293.643 90.9C294.056 90.5133 294.536 90.32 295.083 90.32C295.51 90.32 295.856 90.4467 296.123 90.7C296.39 90.9533 296.523 91.2733 296.523 91.66C296.523 92.1933 296.323 92.6533 295.923 93.04C295.523 93.4133 295.05 93.6 294.503 93.6ZM295.663 94.92L293.703 106H290.883L292.843 94.92H295.663ZM300.329 102.58C300.316 102.66 300.309 102.767 300.309 102.9C300.309 103.167 300.383 103.36 300.529 103.48C300.689 103.587 300.949 103.64 301.309 103.64H302.629L302.209 106H300.429C298.429 106 297.429 105.167 297.429 103.5C297.429 103.18 297.456 102.867 297.509 102.56L298.449 97.22H297.129L297.529 94.92H298.869L299.349 92.18H302.169L301.689 94.92H304.149L303.749 97.22H301.269L300.329 102.58ZM308.023 94.92L309.503 102.66L313.803 94.92H316.783L307.043 111.24H304.063L307.423 105.72L304.883 94.92H308.023Z" fill="black"/>
<path d="M283.173 38.6254H282.172C282.172 44.5825 287.009 49.3481 292.895 49.3481C298.78 49.3481 303.617 44.511 303.617 38.6254H302.759H302.616L295.42 14.7497H295.635V11.6758H276.977L277.025 4.24146H276.93H276.811H273.451H273.332H273.26L273.308 11.6758H254.603V14.7497H254.817L247.645 38.6254H247.502H246.62C246.62 44.5586 251.457 49.3481 257.343 49.3481C263.229 49.3481 268.066 44.5586 268.066 38.6254H267.065H266.827L259.654 14.7497L273.236 14.845V52.0883L273.212 52.0168V52.1598H257.295V58.6172H292.918V52.136H277.001V51.993L276.977 52.0645V14.845L290.559 14.7497L283.363 38.6254H283.173ZM264.468 38.6254H250.218L257.224 15.0118L257.295 14.9879L264.468 38.6254ZM292.918 14.9641L292.99 14.9879L299.995 38.6016H285.746L292.918 14.9641Z" fill="black"/>
<defs>
<clipPath id="clip0_44_489">
<rect width="55" height="55" fill="white" transform="translate(676 8)"/>
</clipPath>
</defs>
</svg>
