<svg width="126" height="42" viewBox="0 0 126 42" fill="none" xmlns="http://www.w3.org/2000/svg">
<path d="M6.36 29.264C5.192 29.264 4.216 29.04 3.432 28.592C2.648 28.128 2.056 27.456 1.656 26.576C1.256 25.696 1.032 24.616 0.984 23.336L4.032 22.736C4.064 23.488 4.152 24.152 4.296 24.728C4.456 25.304 4.688 25.752 4.992 26.072C5.312 26.376 5.728 26.528 6.24 26.528C6.816 26.528 7.224 26.36 7.464 26.024C7.704 25.672 7.824 25.232 7.824 24.704C7.824 23.856 7.632 23.16 7.248 22.616C6.864 22.072 6.352 21.528 5.712 20.984L3.264 18.824C2.576 18.232 2.024 17.576 1.608 16.856C1.208 16.12 1.008 15.216 1.008 14.144C1.008 12.608 1.456 11.424 2.352 10.592C3.248 9.76 4.472 9.344 6.024 9.344C6.936 9.344 7.696 9.488 8.304 9.776C8.912 10.048 9.392 10.432 9.744 10.928C10.112 11.424 10.384 11.992 10.56 12.632C10.736 13.256 10.848 13.92 10.896 14.624L7.872 15.152C7.84 14.544 7.768 14 7.656 13.52C7.56 13.04 7.376 12.664 7.104 12.392C6.848 12.12 6.464 11.984 5.952 11.984C5.424 11.984 5.016 12.16 4.728 12.512C4.456 12.848 4.32 13.272 4.32 13.784C4.32 14.44 4.456 14.984 4.728 15.416C5 15.832 5.392 16.264 5.904 16.712L8.328 18.848C9.128 19.52 9.808 20.312 10.368 21.224C10.944 22.12 11.232 23.208 11.232 24.488C11.232 25.416 11.024 26.24 10.608 26.96C10.208 27.68 9.64 28.248 8.904 28.664C8.184 29.064 7.336 29.264 6.36 29.264ZM13.1816 29L13.5176 9.56H17.1896L19.9496 23.024L22.8296 9.56H26.3816L26.7416 29H24.1016L23.8136 15.488L21.0536 29H18.9176L16.1096 15.44L15.8456 29H13.1816ZM28.6284 29L32.5164 9.56H36.3084L40.1964 29H36.9084L36.1404 24.512H32.7564L31.9644 29H28.6284ZM33.1164 22.256H35.7564L34.4364 14.096L33.1164 22.256ZM42.1515 29V9.56H46.8075C48.1195 9.56 49.2235 9.72 50.1195 10.04C51.0315 10.344 51.7195 10.872 52.1835 11.624C52.6635 12.376 52.9035 13.4 52.9035 14.696C52.9035 15.48 52.8315 16.184 52.6875 16.808C52.5435 17.432 52.2955 17.968 51.9435 18.416C51.6075 18.848 51.1355 19.184 50.5275 19.424L53.2395 29H49.6875L47.3355 20.096H45.7035V29H42.1515ZM45.7035 17.864H46.8075C47.4955 17.864 48.0395 17.768 48.4395 17.576C48.8555 17.368 49.1515 17.048 49.3275 16.616C49.5035 16.168 49.5915 15.6 49.5915 14.912C49.5915 13.936 49.4075 13.208 49.0395 12.728C48.6875 12.232 48.0075 11.984 46.9995 11.984H45.7035V17.864ZM57.4549 29V12.176H54.3589V9.56H64.0549V12.176H61.0069V29H57.4549Z" fill="black"/>
<path d="M74.4458 29.264C73.2778 29.264 72.3018 29.04 71.5178 28.592C70.7338 28.128 70.1418 27.456 69.7418 26.576C69.3418 25.696 69.1178 24.616 69.0698 23.336L72.1178 22.736C72.1498 23.488 72.2378 24.152 72.3818 24.728C72.5418 25.304 72.7738 25.752 73.0778 26.072C73.3978 26.376 73.8138 26.528 74.3258 26.528C74.9018 26.528 75.3098 26.36 75.5498 26.024C75.7898 25.672 75.9098 25.232 75.9098 24.704C75.9098 23.856 75.7178 23.16 75.3338 22.616C74.9498 22.072 74.4378 21.528 73.7978 20.984L71.3498 18.824C70.6618 18.232 70.1098 17.576 69.6938 16.856C69.2938 16.12 69.0938 15.216 69.0938 14.144C69.0938 12.608 69.5418 11.424 70.4378 10.592C71.3338 9.76 72.5578 9.344 74.1098 9.344C75.0218 9.344 75.7818 9.488 76.3898 9.776C76.9978 10.048 77.4778 10.432 77.8298 10.928C78.1978 11.424 78.4698 11.992 78.6458 12.632C78.8218 13.256 78.9338 13.92 78.9818 14.624L75.9578 15.152C75.9258 14.544 75.8538 14 75.7418 13.52C75.6458 13.04 75.4618 12.664 75.1898 12.392C74.9338 12.12 74.5498 11.984 74.0378 11.984C73.5098 11.984 73.1018 12.16 72.8138 12.512C72.5418 12.848 72.4058 13.272 72.4058 13.784C72.4058 14.44 72.5418 14.984 72.8138 15.416C73.0858 15.832 73.4778 16.264 73.9898 16.712L76.4138 18.848C77.2138 19.52 77.8938 20.312 78.4538 21.224C79.0298 22.12 79.3178 23.208 79.3178 24.488C79.3178 25.416 79.1098 26.24 78.6938 26.96C78.2938 27.68 77.7258 28.248 76.9898 28.664C76.2698 29.064 75.4218 29.264 74.4458 29.264ZM81.4572 29V9.56H84.9852V17.696H88.9452V9.56H92.4972V29H88.9452V20.216H84.9852V29H81.4572ZM100.752 29.264C99.3757 29.264 98.2797 29.008 97.4637 28.496C96.6477 27.984 96.0637 27.248 95.7117 26.288C95.3597 25.328 95.1837 24.192 95.1837 22.88V15.608C95.1837 14.296 95.3597 13.176 95.7117 12.248C96.0637 11.304 96.6477 10.584 97.4637 10.088C98.2797 9.592 99.3757 9.344 100.752 9.344C102.16 9.344 103.264 9.592 104.064 10.088C104.88 10.584 105.464 11.304 105.816 12.248C106.184 13.176 106.368 14.296 106.368 15.608V22.904C106.368 24.2 106.184 25.328 105.816 26.288C105.464 27.232 104.88 27.968 104.064 28.496C103.264 29.008 102.16 29.264 100.752 29.264ZM100.752 26.648C101.344 26.648 101.776 26.52 102.048 26.264C102.336 26.008 102.528 25.656 102.624 25.208C102.72 24.76 102.768 24.272 102.768 23.744V14.792C102.768 14.248 102.72 13.76 102.624 13.328C102.528 12.896 102.336 12.56 102.048 12.32C101.776 12.064 101.344 11.936 100.752 11.936C100.192 11.936 99.7677 12.064 99.4797 12.32C99.1917 12.56 98.9997 12.896 98.9037 13.328C98.8077 13.76 98.7597 14.248 98.7597 14.792V23.744C98.7597 24.272 98.7997 24.76 98.8797 25.208C98.9757 25.656 99.1677 26.008 99.4557 26.264C99.7437 26.52 100.176 26.648 100.752 26.648ZM108.995 29V9.56H114.707C115.875 9.56 116.819 9.776 117.539 10.208C118.275 10.64 118.811 11.272 119.147 12.104C119.499 12.92 119.675 13.912 119.675 15.08C119.675 16.344 119.459 17.368 119.027 18.152C118.595 18.92 117.987 19.48 117.203 19.832C116.435 20.184 115.523 20.36 114.467 20.36H112.547V29H108.995ZM112.547 17.864H113.891C114.531 17.864 115.027 17.776 115.379 17.6C115.747 17.408 115.995 17.112 116.123 16.712C116.267 16.296 116.339 15.744 116.339 15.056C116.339 14.352 116.283 13.784 116.171 13.352C116.075 12.904 115.851 12.576 115.499 12.368C115.163 12.16 114.627 12.056 113.891 12.056H112.547V17.864ZM119.394 29V25.712H122.562V29H119.394Z" fill="#3F69FF"/>
</svg>
